<svg width="118" height="49" viewBox="0 0 118 49" fill="none" xmlns="http://www.w3.org/2000/svg">
<path d="M21.7647 0L1.27441 11.1095L21.793 22.9559L29.615 18.4498L26.3275 16.5509L21.793 19.1583L8.04782 11.2229L21.793 3.79764L23.125 4.5345L38.9391 13.0934L42.2833 11.1379L21.7647 0Z" fill="white"/>
<path d="M12.81 20.1499V23.9475L17.4578 26.6399V43.0774L3.28751 34.3485V14.6234L0 12.7246V36.1907L20.7737 48.9723V24.7127L12.81 20.1499Z" fill="white"/>
<path d="M41.0663 14.1983L22.8149 24.741V34.0084L26.1025 32.0813V26.6399L40.2728 18.4494V34.3769L26.1025 43.0774L22.8149 45.118V49.0006L43.5886 36.219V12.7246L41.0663 14.1983Z" fill="white"/>
<path d="M65.8609 16.0688H57.6988V21.7086H65.5775V25.0244H57.6988V36.1907H54.1562V12.7246H65.8609V16.0688Z" fill="white"/>
<path d="M73.797 12.7246V36.1907H70.2544V12.7246H73.797Z" fill="white"/>
<path d="M82.6954 12.7256V32.8475H89.5822V36.1633H79.1528V12.6973H82.6954V12.7256Z" fill="white"/>
<path d="M91.8486 36.1919L96.7799 10.9688L104.829 29.1918L113.161 10.9688L117.61 36.1919H113.983L111.715 22.0216L104.772 37.2689L98.0269 22.0216L95.5046 36.1919H91.8486Z" fill="white"/>
</svg>
