<svg width="118" height="18" viewBox="0 0 118 18" fill="none" xmlns="http://www.w3.org/2000/svg">
<path d="M71.2764 0L63.6895 3.94709L71.2816 8.15718L74.1804 6.54993L72.9597 5.87176L71.2816 6.80386L66.1908 3.98236L71.2816 1.33921L71.7756 1.60121L77.632 4.64339L78.8738 3.94709L71.2764 0Z" fill="white"/>
<path d="M67.9542 7.17427V8.52759L69.6732 9.47985V15.3244L64.4293 12.2248V5.21131L63.2085 4.53516V12.8808L70.8929 17.4234V8.79765L67.9542 7.17427Z" fill="white"/>
<path d="M78.4151 5.04239L71.6567 8.79097V12.0851L72.8765 11.4039V9.46813L78.1204 6.55996V12.2181L72.8765 15.3127L71.6567 16.0392V17.4157L79.3412 12.8731V4.52344L78.4151 5.04239Z" fill="white"/>
<path d="M88.7775 9.87825V8.51889H92.9506C92.9506 12.0599 90.66 13.2248 88.466 13.2248C85.6028 13.2248 83.2734 11.3333 83.2734 8.91995C83.2734 6.36749 85.4392 4.52344 88.2982 4.52344C90.5667 4.52344 91.8263 5.54825 91.8997 5.61274L91.0365 6.7877C90.9747 6.71313 90.0056 5.93117 88.3212 5.93117C86.3653 5.93117 85.1266 7.2079 85.1266 8.90282C85.1266 10.4405 86.4901 11.819 88.4775 11.819C89.8923 11.819 91.0156 10.9625 91.1204 9.88128L88.7775 9.87825Z" fill="white"/>
<path d="M97.05 7.3923L95.6751 10.0324H98.4564L97.05 7.3923ZM99.9541 12.8771L99.1476 11.3474H94.9577L94.1512 12.8771H92.2183L97.0563 4.17578L101.894 12.8771H99.9541Z" fill="white"/>
<path d="M102.367 12.8761V4.52344H104.1V11.4522H107.949V12.8761H102.367Z" fill="white"/>
<path d="M113.149 7.39331L114.556 10.0324H111.774L113.149 7.39331ZM108.325 12.8771H110.258L111.064 11.3474H115.251L116.057 12.8771H118L113.159 4.17578L108.325 12.8771Z" fill="white"/>
<path d="M3.06308 9.70862H0.844202V8.84818H3.06308C3.49279 8.84818 3.84074 8.78241 4.10693 8.65088C4.37312 8.51935 4.56706 8.33666 4.68874 8.10283C4.81423 7.86899 4.87698 7.60227 4.87698 7.30267C4.87698 7.02865 4.81423 6.77106 4.68874 6.52992C4.56706 6.28878 4.37312 6.09513 4.10693 5.94898C3.84074 5.79918 3.49279 5.72428 3.06308 5.72428H1.10088V12.838H0V4.85836H3.06308C3.69053 4.85836 4.22101 4.96249 4.65452 5.17075C5.08803 5.37901 5.41696 5.66765 5.64132 6.03667C5.86568 6.40204 5.97786 6.82039 5.97786 7.29171C5.97786 7.80323 5.86568 8.23984 5.64132 8.60155C5.41696 8.96327 5.08803 9.23912 4.65452 9.42911C4.22101 9.61545 3.69053 9.70862 3.06308 9.70862Z" fill="white"/>
<path d="M6.85058 9.9388V9.81275C6.85058 9.38527 6.91523 8.98884 7.04452 8.62348C7.17381 8.25445 7.36015 7.93476 7.60352 7.66439C7.84689 7.39036 8.1416 7.17845 8.48765 7.02865C8.8337 6.87519 9.22157 6.79846 9.65128 6.79846C10.0848 6.79846 10.4746 6.87519 10.8206 7.02865C11.1705 7.17845 11.4671 7.39036 11.7104 7.66439C11.9576 7.93476 12.1459 8.25445 12.2751 8.62348C12.4044 8.98884 12.4691 9.38527 12.4691 9.81275V9.9388C12.4691 10.3663 12.4044 10.7627 12.2751 11.1281C12.1459 11.4934 11.9576 11.8131 11.7104 12.0872C11.4671 12.3575 11.1724 12.5694 10.8263 12.7229C10.4841 12.8727 10.0962 12.9476 9.66269 12.9476C9.22918 12.9476 8.8394 12.8727 8.49335 12.7229C8.14731 12.5694 7.8507 12.3575 7.60352 12.0872C7.36015 11.8131 7.17381 11.4934 7.04452 11.1281C6.91523 10.7627 6.85058 10.3663 6.85058 9.9388ZM7.90584 9.81275V9.9388C7.90584 10.2347 7.94196 10.5143 8.01421 10.7773C8.08646 11.0367 8.19484 11.2669 8.33934 11.4679C8.48765 11.6688 8.67208 11.8277 8.89264 11.9447C9.1132 12.0579 9.36988 12.1146 9.66269 12.1146C9.95169 12.1146 10.2046 12.0579 10.4213 11.9447C10.6419 11.8277 10.8244 11.6688 10.9689 11.4679C11.1134 11.2669 11.2218 11.0367 11.2941 10.7773C11.3701 10.5143 11.4081 10.2347 11.4081 9.9388V9.81275C11.4081 9.52045 11.3701 9.2446 11.2941 8.98519C11.2218 8.72212 11.1115 8.49012 10.9632 8.28916C10.8187 8.08456 10.6362 7.9238 10.4156 7.80688C10.1989 7.68996 9.94409 7.6315 9.65128 7.6315C9.36227 7.6315 9.10749 7.68996 8.88693 7.80688C8.67018 7.9238 8.48765 8.08456 8.33934 8.28916C8.19484 8.49012 8.08646 8.72212 8.01421 8.98519C7.94196 9.2446 7.90584 9.52045 7.90584 9.81275Z" fill="white"/>
<path d="M15.3553 11.7857L16.9411 6.90807H17.637L17.5001 7.87813L15.8858 12.838H15.207L15.3553 11.7857ZM14.2887 6.90807L15.6405 11.8405L15.7375 12.838H15.0245L13.2334 6.90807H14.2887ZM19.1543 11.8022L20.4434 6.90807H21.4929L19.7018 12.838H18.9945L19.1543 11.8022ZM17.791 6.90807L19.3425 11.7035L19.5193 12.838H18.8462L17.1863 7.86716L17.0495 6.90807H17.791Z" fill="white"/>
<path d="M25.1378 12.9476C24.7081 12.9476 24.3183 12.8782 23.9685 12.7393C23.6224 12.5968 23.3239 12.3977 23.0729 12.142C22.8258 11.8862 22.6356 11.583 22.5025 11.2322C22.3694 10.8814 22.3029 10.4978 22.3029 10.0813V9.85111C22.3029 9.36882 22.377 8.93952 22.5254 8.56319C22.6737 8.18321 22.8752 7.86168 23.13 7.59862C23.3848 7.33555 23.6738 7.13643 23.997 7.00124C24.3202 6.86606 24.6549 6.79846 25.0009 6.79846C25.442 6.79846 25.8223 6.87154 26.1417 7.01768C26.465 7.16383 26.7292 7.36844 26.9346 7.6315C27.1399 7.89091 27.2921 8.19782 27.3909 8.55223C27.4898 8.90298 27.5392 9.28662 27.5392 9.70314V10.158H22.9303V9.33046H26.484V9.25373C26.4688 8.99067 26.4117 8.73491 26.3129 8.48646C26.2178 8.23801 26.0657 8.03341 25.8565 7.87265C25.6474 7.71188 25.3622 7.6315 25.0009 7.6315C24.7613 7.6315 24.5408 7.68083 24.3392 7.77948C24.1377 7.87447 23.9647 8.01697 23.8202 8.20696C23.6757 8.39695 23.5635 8.62896 23.4836 8.90298C23.4038 9.17701 23.3639 9.49305 23.3639 9.85111V10.0813C23.3639 10.3626 23.4038 10.6275 23.4836 10.876C23.5673 11.1208 23.6871 11.3363 23.843 11.5227C24.0027 11.709 24.1947 11.8552 24.4191 11.9611C24.6473 12.0671 24.9059 12.12 25.1949 12.12C25.5675 12.12 25.8831 12.047 26.1417 11.9008C26.4003 11.7547 26.6266 11.5592 26.8205 11.3144L27.4594 11.8022C27.3263 11.9958 27.1571 12.1803 26.9517 12.3557C26.7464 12.5311 26.4935 12.6736 26.1931 12.7832C25.8965 12.8928 25.5447 12.9476 25.1378 12.9476Z" fill="white"/>
<path d="M29.8266 7.83976V12.838H28.7713V6.90807H29.798L29.8266 7.83976ZM31.7545 6.87519L31.7488 7.81784C31.6614 7.79957 31.5777 7.78861 31.4979 7.78496C31.4218 7.77765 31.3343 7.774 31.2355 7.774C30.9921 7.774 30.7772 7.81053 30.5909 7.88361C30.4046 7.95668 30.2468 8.05898 30.1175 8.19051C29.9882 8.32205 29.8855 8.47916 29.8094 8.66184C29.7372 8.84087 29.6897 9.03817 29.6668 9.25373L29.3702 9.41815C29.3702 9.06009 29.4064 8.72395 29.4786 8.40974C29.5547 8.09552 29.6706 7.81784 29.8266 7.5767C29.9825 7.3319 30.1802 7.14191 30.4198 7.00672C30.6632 6.86788 30.9522 6.79846 31.2868 6.79846C31.3629 6.79846 31.4503 6.8076 31.5492 6.82587C31.6481 6.84048 31.7165 6.85692 31.7545 6.87519Z" fill="white"/>
<path d="M35.177 12.9476C34.7473 12.9476 34.3575 12.8782 34.0076 12.7393C33.6616 12.5968 33.3631 12.3977 33.1121 12.142C32.8649 11.8862 32.6748 11.583 32.5417 11.2322C32.4086 10.8814 32.3421 10.4978 32.3421 10.0813V9.85111C32.3421 9.36882 32.4162 8.93952 32.5645 8.56319C32.7128 8.18321 32.9144 7.86168 33.1691 7.59862C33.4239 7.33555 33.7129 7.13643 34.0362 7.00124C34.3594 6.86606 34.694 6.79846 35.0401 6.79846C35.4812 6.79846 35.8615 6.87154 36.1809 7.01768C36.5041 7.16383 36.7684 7.36844 36.9738 7.6315C37.1791 7.89091 37.3312 8.19782 37.4301 8.55223C37.529 8.90298 37.5784 9.28662 37.5784 9.70314V10.158H32.9695V9.33046H36.5231V9.25373C36.5079 8.99067 36.4509 8.73491 36.352 8.48646C36.2569 8.23801 36.1048 8.03341 35.8957 7.87265C35.6865 7.71188 35.4013 7.6315 35.0401 7.6315C34.8005 7.6315 34.5799 7.68083 34.3784 7.77948C34.1769 7.87447 34.0038 8.01697 33.8593 8.20696C33.7148 8.39695 33.6026 8.62896 33.5228 8.90298C33.4429 9.17701 33.403 9.49305 33.403 9.85111V10.0813C33.403 10.3626 33.4429 10.6275 33.5228 10.876C33.6065 11.1208 33.7262 11.3363 33.8821 11.5227C34.0419 11.709 34.2339 11.8552 34.4583 11.9611C34.6864 12.0671 34.945 12.12 35.234 12.12C35.6067 12.12 35.9223 12.047 36.1809 11.9008C36.4395 11.7547 36.6657 11.5592 36.8597 11.3144L37.4985 11.8022C37.3654 11.9958 37.1962 12.1803 36.9909 12.3557C36.7855 12.5311 36.5326 12.6736 36.2322 12.7832C35.9356 12.8928 35.5839 12.9476 35.177 12.9476Z" fill="white"/>
<path d="M42.7006 11.6871V4.41992H43.7616V12.838H42.7919L42.7006 11.6871ZM38.5481 9.9388V9.82371C38.5481 9.37065 38.6051 8.95961 38.7192 8.59059C38.8371 8.21792 39.0025 7.89822 39.2155 7.6315C39.4322 7.36478 39.6889 7.16018 39.9855 7.01768C40.2859 6.87154 40.6206 6.79846 40.9894 6.79846C41.3773 6.79846 41.7157 6.86423 42.0047 6.99576C42.2976 7.12364 42.5447 7.31181 42.7463 7.56026C42.9516 7.80505 43.1132 8.101 43.2311 8.4481C43.349 8.7952 43.4308 9.18797 43.4764 9.62641V10.1306C43.4346 10.5654 43.3528 10.9563 43.2311 11.3034C43.1132 11.6505 42.9516 11.9465 42.7463 12.1913C42.5447 12.4361 42.2976 12.6243 42.0047 12.7558C41.7119 12.8837 41.3697 12.9476 40.978 12.9476C40.6168 12.9476 40.2859 12.8727 39.9855 12.7229C39.6889 12.5731 39.4322 12.363 39.2155 12.0926C39.0025 11.8223 38.8371 11.5044 38.7192 11.139C38.6051 10.77 38.5481 10.3699 38.5481 9.9388ZM39.609 9.82371V9.9388C39.609 10.2347 39.6395 10.5124 39.7003 10.7718C39.7649 11.0312 39.8638 11.2596 39.9969 11.4569C40.13 11.6542 40.2992 11.8095 40.5046 11.9227C40.7099 12.0324 40.9552 12.0872 41.2404 12.0872C41.5902 12.0872 41.8774 12.0159 42.1017 11.8734C42.3299 11.7309 42.5124 11.5428 42.6493 11.3089C42.7862 11.0751 42.8927 10.8212 42.9687 10.5471V9.22633C42.9231 9.02538 42.8566 8.83174 42.7691 8.6454C42.6854 8.45541 42.5751 8.28734 42.4383 8.14119C42.3052 7.99139 42.1397 7.87265 41.942 7.78496C41.7481 7.69727 41.518 7.65342 41.2518 7.65342C40.9628 7.65342 40.7137 7.71188 40.5046 7.8288C40.2992 7.94207 40.13 8.09917 39.9969 8.30013C39.8638 8.49742 39.7649 8.72761 39.7003 8.99067C39.6395 9.25008 39.609 9.52776 39.609 9.82371Z" fill="white"/>
<path d="M48.2963 4.41992H49.3573V11.6871L49.266 12.838H48.2963V4.41992ZM53.527 9.82371V9.9388C53.527 10.3699 53.4737 10.77 53.3672 11.139C53.2608 11.5044 53.1049 11.8223 52.8995 12.0926C52.6942 12.363 52.4432 12.5731 52.1466 12.7229C51.85 12.8727 51.5096 12.9476 51.1255 12.9476C50.7339 12.9476 50.3897 12.8837 50.0931 12.7558C49.8003 12.6243 49.5531 12.4361 49.3516 12.1913C49.15 11.9465 48.9884 11.6505 48.8667 11.3034C48.7488 10.9563 48.6671 10.5654 48.6215 10.1306V9.62641C48.6671 9.18797 48.7488 8.7952 48.8667 8.4481C48.9884 8.101 49.15 7.80505 49.3516 7.56026C49.5531 7.31181 49.8003 7.12364 50.0931 6.99576C50.3859 6.86423 50.7263 6.79846 51.1141 6.79846C51.502 6.79846 51.8462 6.87154 52.1466 7.01768C52.447 7.16018 52.698 7.36478 52.8995 7.6315C53.1049 7.89822 53.2608 8.21792 53.3672 8.59059C53.4737 8.95961 53.527 9.37065 53.527 9.82371ZM52.466 9.9388V9.82371C52.466 9.52776 52.4375 9.25008 52.3804 8.99067C52.3234 8.72761 52.2321 8.49742 52.1066 8.30013C51.9812 8.09917 51.8157 7.94207 51.6104 7.8288C51.405 7.71188 51.1522 7.65342 50.8517 7.65342C50.5856 7.65342 50.3536 7.69727 50.1559 7.78496C49.9619 7.87265 49.7965 7.99139 49.6596 8.14119C49.5227 8.28734 49.4105 8.45541 49.3231 8.6454C49.2394 8.83174 49.1767 9.02538 49.1348 9.22633V10.5471C49.1957 10.8029 49.2945 11.0495 49.4314 11.287C49.5721 11.5208 49.7585 11.7127 49.9904 11.8625C50.2262 12.0123 50.5171 12.0872 50.8632 12.0872C51.1484 12.0872 51.3917 12.0324 51.5933 11.9227C51.7986 11.8095 51.964 11.6542 52.0895 11.4569C52.2188 11.2596 52.3139 11.0312 52.3747 10.7718C52.4356 10.5124 52.466 10.2347 52.466 9.9388Z" fill="white"/>
<path d="M56.5273 12.2242L58.2442 6.90807H59.3736L56.8981 13.7532C56.841 13.8994 56.765 14.0565 56.6699 14.2246C56.5786 14.3963 56.4607 14.5589 56.3162 14.7123C56.1717 14.8658 55.9968 14.99 55.7915 15.085C55.5899 15.1836 55.3484 15.233 55.0671 15.233C54.9834 15.233 54.8769 15.222 54.7476 15.2001C54.6183 15.1782 54.5271 15.1599 54.4738 15.1453L54.4681 14.3232C54.4985 14.3269 54.5461 14.3305 54.6107 14.3342C54.6792 14.3415 54.7267 14.3451 54.7533 14.3451C54.9929 14.3451 55.1963 14.3141 55.3637 14.252C55.531 14.1935 55.6717 14.093 55.7858 13.9505C55.9036 13.8117 56.0044 13.6199 56.0881 13.3751L56.5273 12.2242ZM55.2667 6.90807L56.8695 11.5117L57.1433 12.5804L56.3847 12.9531L54.1145 6.90807H55.2667Z" fill="white"/>
</svg>
